<?xml version="1.0" standalone="no"?>
<!DOCTYPE svg PUBLIC "-//W3C//DTD SVG 20010904//EN"
 "http://www.w3.org/TR/2001/REC-SVG-20010904/DTD/svg10.dtd">
<svg version="1.0" xmlns="http://www.w3.org/2000/svg"
 width="636.000000pt" height="636.000000pt" viewBox="0 0 636.000000 636.000000"
 preserveAspectRatio="xMidYMid meet">
<metadata>
Created by potrace 1.16, written by Peter Selinger 2001-2019
</metadata>
<g transform="translate(0.000000,636.000000) scale(0.100000,-0.100000)"
fill="#000000" stroke="none">
<path d="M2565 5173 c-483 -47 -923 -391 -1089 -851 -40 -112 -51 -171 -121
-677 -126 -902 -146 -1041 -162 -1150 -59 -386 29 -683 270 -911 122 -117 269
-192 447 -231 79 -17 152 -18 1040 -18 1058 0 1024 -2 1218 67 306 108 571
337 726 628 91 172 107 242 186 800 39 278 95 678 125 890 67 476 70 511 55
635 -42 351 -256 633 -572 755 -170 66 -129 64 -1153 65 -511 1 -948 0 -970
-2z m1880 -367 c231 -68 398 -237 449 -456 28 -118 21 -199 -89 -984 -145
-1034 -142 -1016 -177 -1114 -77 -211 -262 -405 -478 -499 -162 -70 -121 -68
-1155 -68 l-930 0 -80 23 c-222 64 -389 236 -439 452 -28 116 -20 203 74 879
157 1117 156 1113 188 1205 103 298 390 534 703 575 35 5 471 8 969 7 832 -2
910 -3 965 -20z"/>
<path d="M3775 4215 c-123 -23 -233 -66 -342 -135 -78 -50 -114 -35 -123 51
-8 79 -12 80 -268 77 l-214 -3 -22 -25 c-18 -22 -27 -68 -65 -335 -81 -585
-190 -1360 -202 -1442 -19 -128 -30 -123 261 -123 212 0 240 2 259 18 25 20
24 16 101 564 27 197 56 388 65 425 48 208 185 357 385 417 30 10 106 20 168
23 102 5 115 8 131 29 13 16 25 76 44 216 15 106 27 201 27 210 0 48 -64 59
-205 33z"/>
</g>
</svg>
